PathFileType	4	(X/Y/Z)	c:/Users/goper/Files/vsCode/490R/osim_files/C07/C07_Static.trc
DataRate	CameraRate	NumFrames	NumMarkers	Units                	OrigDataRate	OrigDataStartFrame	OrigNumFrames
250.00	250.00	6	36	mm	250.0	1166	1554
                Frame#	Time	LPSIS			LASIS			LTH1			LTH2			LTH3			LTH4			LLFE			LMFE			LSH1			LSH2			LSH3			LSH4			LLMAL			LMMAL			LCAL			LMTP5			LTOE			LMTP1			RPSIS			RASIS			RTH1			RTH2			RTH3			RTH4			RLFE			RMFE			RSH1			RSH2			RSH3			RSH4			RLMAL			RMMAL			RCAL			RMTP1			RTOE			RMTP5		
		X1	Y1	Z1	X2	Y2	Z2	X3	Y3	Z3	X4	Y4	Z4	X5	Y5	Z5	X6	Y6	Z6	X7	Y7	Z7	X8	Y8	Z8	X9	Y9	Z9	X10	Y10	Z10	X11	Y11	Z11	X12	Y12	Z12	X13	Y13	Z13	X14	Y14	Z14	X15	Y15	Z15	X16	Y16	Z16	X17	Y17	Z17	X18	Y18	Z18	X19	Y19	Z19	X20	Y20	Z20	X21	Y21	Z21	X22	Y22	Z22	X23	Y23	Z23	X24	Y24	Z24	X25	Y25	Z25	X26	Y26	Z26	X27	Y27	Z27	X28	Y28	Z28	X29	Y29	Z29	X30	Y30	Z30	X31	Y31	Z31	X32	Y32	Z32	X33	Y33	Z33	X34	Y34	Z34	X35	Y35	Z35	X36	Y36	Z36

1166	4.66000	-402.04636	1031.26965	359.12134	-238.89130	987.13678	277.41595	-320.25534	800.34540	214.59425	-319.12906	721.92999	211.71898	-318.30136	645.75555	220.67885	-242.64278	723.14459	239.55411	-347.60690	524.47650	237.84131	-355.72464	503.17700	359.05029	-383.77634	337.52304	213.63216	-400.78717	292.38000	224.81129	-344.94003	342.00589	228.38647	-348.93954	296.34119	233.16464	-406.16278	109.21792	257.81955	-382.74393	127.27190	331.55661	-465.48743	47.12734	301.21826	-282.00656	41.11789	226.32503	-226.40184	52.87536	282.67081	-256.61136	41.78448	333.04895	-393.73935	1033.53381	459.58023	-236.68413	976.40173	530.05768	-288.54581	829.55859	590.96118	-291.61719	749.76093	592.70807	-298.84454	668.31714	587.23413	-225.60371	744.63409	551.16272	-326.79834	497.34232	553.73224	-341.08527	500.98456	442.10138	-396.83945	322.55380	576.81390	-369.28046	273.35699	579.22742	-335.60388	322.02307	570.71002	-339.54553	277.35965	568.25970	-402.20816	97.73851	540.19305	-377.93005	105.29248	461.61356	-453.14136	45.29193	498.57272	-245.10199	39.92067	464.28467	-219.05692	52.15049	511.67209	-263.92270	36.89841	573.14532
1167	4.66400	-402.06491	1031.22119	359.17151	-238.89378	987.09961	277.40146	-320.21872	800.31879	214.57907	-319.12109	721.92419	211.71487	-318.30841	645.70618	220.69159	-242.68520	723.07812	239.55803	-347.61691	524.47235	237.85892	-355.66910	503.14609	359.10168	-383.76999	337.48532	213.63808	-400.75983	292.35190	224.79568	-344.94861	341.97128	228.42389	-348.93466	296.31583	233.16495	-406.14569	109.17603	257.84708	-382.68524	127.23381	331.59158	-465.47726	47.09424	301.25500	-281.97635	41.09398	226.32814	-226.38228	52.83546	282.63742	-256.58731	41.74162	333.03510	-393.72549	1033.49084	459.57245	-236.67447	976.34918	530.02240	-288.54251	829.55780	590.99078	-291.58862	749.76947	592.69232	-298.82770	668.28137	587.21307	-225.60283	744.60345	551.15247	-326.74414	497.27750	553.69006	-341.08759	500.94388	442.10907	-396.83942	322.52328	576.84662	-369.30420	273.34241	579.25073	-335.59589	321.96487	570.67468	-339.53244	277.32425	568.24811	-402.20847	97.71439	540.23065	-377.92392	105.25838	461.62610	-453.64633	45.52257	498.67059	-245.09415	39.89368	464.27966	-219.06099	52.09695	511.68234	-263.91513	36.85906	573.15802
1168	4.66800	-402.06699	1031.15771	359.16156	-238.89935	987.09033	277.36325	-320.26999	800.28729	214.58789	-319.11697	721.91461	211.72818	-318.34750	645.70703	220.70784	-242.67139	723.08472	239.53154	-347.62036	524.42188	237.84908	-355.60767	503.08432	359.13226	-383.77164	337.45087	213.62741	-400.79153	292.29172	224.76048	-344.93912	341.95435	228.37929	-348.98947	296.26346	233.15517	-406.17584	109.16777	257.82452	-382.62573	127.16125	331.59686	-465.47699	47.04787	301.23410	-281.97885	41.05677	226.32919	-226.39397	52.77899	282.61035	-256.54929	41.64946	332.97607	-393.71597	1033.44458	459.65225	-236.65710	976.30945	530.00928	-288.50583	829.50342	591.01160	-291.60318	749.73718	592.75983	-298.76416	668.17529	587.21484	-225.60562	744.55280	551.15784	-326.71609	497.17075	553.67645	-341.08603	500.94601	442.10202	-396.80685	322.47705	576.84113	-369.22290	273.26505	579.24426	-335.60907	321.94659	570.70337	-339.50018	277.28448	568.22223	-402.12381	97.64033	540.27612	-377.92337	105.22326	461.63077	-453.62585	45.47252	498.72766	-245.04588	39.89367	464.21707	-219.06891	52.04683	511.68063	-263.90347	36.81977	573.16504
1169	4.67200	-402.08939	1031.10059	359.21790	-238.92960	987.04327	277.34225	-320.26370	800.25879	214.59624	-319.57825	721.72821	211.97951	-318.35229	645.66779	220.70894	-242.68095	723.02032	239.50850	-347.60687	524.40265	237.86278	-355.64539	503.05154	359.17270	-383.79715	337.42538	213.62683	-400.84573	292.19348	224.76370	-344.93948	341.95291	228.34427	-349.00104	296.22073	233.12909	-406.18219	109.11492	257.83041	-382.62030	127.12490	331.63568	-465.45477	46.98652	301.24380	-281.95627	41.00826	226.31465	-226.35143	52.65482	282.62100	-256.55435	41.57985	332.95642	-393.68842	1033.39404	459.66275	-236.68269	976.26562	530.01642	-288.51053	829.49219	591.02087	-291.57013	749.65833	592.82336	-298.78958	668.12677	587.24359	-225.58667	744.50537	551.14917	-326.75180	497.12045	553.69611	-341.06766	500.90567	442.11014	-396.82379	322.43930	576.87170	-369.23004	273.25742	579.28333	-335.61188	321.89648	570.68500	-339.50226	277.23480	568.22491	-402.09262	97.59000	540.30927	-377.94034	105.16682	461.64230	-453.62253	45.44866	498.74332	-245.06798	39.81222	464.23669	-219.03590	51.99352	511.65872	-263.90714	36.77982	573.20062
1170	4.67600	-402.06873	1031.04761	359.20325	-238.93713	987.03271	277.30896	-320.32004	800.21405	214.58974	-319.18292	721.84216	211.70844	-318.36795	645.65668	220.69893	-242.70708	723.01007	239.48598	-347.62167	524.33032	237.84074	-355.55862	502.99789	359.15680	-383.81100	337.38776	213.61882	-400.72827	292.28561	224.62309	-344.93130	341.93164	228.31110	-348.96591	296.22656	233.10530	-406.20868	109.07621	257.82687	-382.70016	127.13930	331.68201	-465.41977	46.94751	301.25299	-282.01633	40.97631	226.31970	-226.36253	52.63874	282.59988	-256.60895	41.49684	332.92419	-393.70483	1033.37537	459.66690	-236.71719	976.24750	530.05463	-288.62753	829.47284	591.06830	-291.67511	749.66913	592.85315	-298.87192	668.13519	587.28595	-225.71365	744.52631	551.21124	-326.81586	497.21863	553.82697	-341.10751	500.89102	442.11536	-396.85147	322.40710	576.90131	-369.30432	273.23499	579.31311	-335.65686	321.92776	570.67902	-339.57590	277.24020	568.24414	-402.16968	97.59577	540.30731	-377.95190	105.15630	461.64401	-453.60864	45.41271	498.77521	-245.10808	39.77138	464.24768	-219.08638	51.99068	511.66202	-263.96039	36.77706	573.22626
1171	4.68000	-402.06241	1031.01843	359.20599	-238.94131	986.99652	277.27939	-320.32068	800.21027	214.59520	-319.19452	721.83136	211.71986	-318.39050	645.62085	220.71194	-242.69075	722.98224	239.47021	-347.61682	524.28503	237.84952	-355.60419	502.99368	359.19009	-383.80875	337.33652	213.60474	-400.78781	292.19989	224.67703	-344.95090	341.91006	228.30127	-348.99548	296.22961	233.10120	-406.22440	109.06216	257.81067	-382.80545	127.17489	331.71439	-465.40375	46.89288	301.26398	-282.04944	40.95847	226.32646	-226.40373	52.61545	282.54193	-256.67154	41.50649	332.92798	-393.69925	1033.33862	459.68091	-236.75037	976.24121	530.03461	-288.73169	829.54803	591.08893	-291.77646	749.65704	592.85236	-298.96902	668.22839	587.45917	-225.73689	744.53412	551.22070	-326.91089	497.29187	553.88354	-341.12564	500.87411	442.11942	-396.92343	322.45569	576.91211	-369.36557	273.23279	579.31677	-335.71198	321.90210	570.72076	-339.63034	277.23532	568.28815	-402.29764	97.63660	540.34814	-377.96140	105.12386	461.64435	-453.14343	45.18979	498.74713	-245.13010	39.78868	464.23965	-219.11552	51.97036	511.66837	-263.97836	36.76778	573.22955
